<svg xmlns="http://www.w3.org/2000/svg" width="900" height="420">
<rect width="100%" height="100%" fill="white"/>
<text x="450.0" y="28" text-anchor="middle" font-size="18" font-family="Arial">Baseline vs Best Reweight (Within Served Top-3)</text>
<line x1="70" y1="50" x2="70" y2="350" stroke="black"/>
<line x1="70" y1="350" x2="880" y2="350" stroke="black"/>
<line x1="65" y1="350.0" x2="70" y2="350.0" stroke="black"/>
<text x="60" y="354.0" text-anchor="end" font-size="11" font-family="Arial">0.00</text>
<line x1="70" y1="350.0" x2="880" y2="350.0" stroke="#eee"/>
<line x1="65" y1="290.0" x2="70" y2="290.0" stroke="black"/>
<text x="60" y="294.0" text-anchor="end" font-size="11" font-family="Arial">0.02</text>
<line x1="70" y1="290.0" x2="880" y2="290.0" stroke="#eee"/>
<line x1="65" y1="230.0" x2="70" y2="230.0" stroke="black"/>
<text x="60" y="234.0" text-anchor="end" font-size="11" font-family="Arial">0.05</text>
<line x1="70" y1="230.0" x2="880" y2="230.0" stroke="#eee"/>
<line x1="65" y1="170.0" x2="70" y2="170.0" stroke="black"/>
<text x="60" y="174.0" text-anchor="end" font-size="11" font-family="Arial">0.07</text>
<line x1="70" y1="170.0" x2="880" y2="170.0" stroke="#eee"/>
<line x1="65" y1="110.0" x2="70" y2="110.0" stroke="black"/>
<text x="60" y="114.0" text-anchor="end" font-size="11" font-family="Arial">0.10</text>
<line x1="70" y1="110.0" x2="880" y2="110.0" stroke="#eee"/>
<line x1="65" y1="50.0" x2="70" y2="50.0" stroke="black"/>
<text x="60" y="54.0" text-anchor="end" font-size="11" font-family="Arial">0.12</text>
<line x1="70" y1="50.0" x2="880" y2="50.0" stroke="#eee"/>
<line x1="70.0" y1="350" x2="70.0" y2="355" stroke="black"/>
<text x="70.0" y="370" text-anchor="middle" font-size="10" font-family="Arial">P@1</text>
<line x1="475.0" y1="350" x2="475.0" y2="355" stroke="black"/>
<text x="475.0" y="370" text-anchor="middle" font-size="10" font-family="Arial">MRR</text>
<line x1="880.0" y1="350" x2="880.0" y2="355" stroke="black"/>
<text x="880.0" y="370" text-anchor="middle" font-size="10" font-family="Arial">NDCG</text>
<polyline fill="none" stroke="#1f77b4" stroke-width="2.5" points="70.0,251.9 475.0,191.1 880.0,170.8"/>
<circle cx="70.0" cy="251.9" r="3" fill="#1f77b4"/>
<circle cx="475.0" cy="191.1" r="3" fill="#1f77b4"/>
<circle cx="880.0" cy="170.8" r="3" fill="#1f77b4"/>
<polyline fill="none" stroke="#d62728" stroke-width="2.5" points="70.0,222.3 475.0,172.8 880.0,156.7"/>
<circle cx="70.0" cy="222.3" r="3" fill="#d62728"/>
<circle cx="475.0" cy="172.8" r="3" fill="#d62728"/>
<circle cx="880.0" cy="156.7" r="3" fill="#d62728"/>
<line x1="90" y1="60" x2="110" y2="60" stroke="#1f77b4" stroke-width="3"/>
<text x="118" y="64" font-size="11" font-family="Arial">Baseline</text>
<line x1="90" y1="78" x2="110" y2="78" stroke="#d62728" stroke-width="3"/>
<text x="118" y="82" font-size="11" font-family="Arial">Best reweight</text>
</svg>