<svg xmlns="http://www.w3.org/2000/svg" width="900" height="420">
<rect width="100%" height="100%" fill="white"/>
<text x="450.0" y="28" text-anchor="middle" font-size="18" font-family="Arial">Similarity Reliability by Decile</text>
<line x1="70" y1="50" x2="70" y2="350" stroke="black"/>
<line x1="70" y1="350" x2="880" y2="350" stroke="black"/>
<line x1="65" y1="350.0" x2="70" y2="350.0" stroke="black"/>
<text x="60" y="354.0" text-anchor="end" font-size="11" font-family="Arial">0.00</text>
<line x1="70" y1="350.0" x2="880" y2="350.0" stroke="#eee"/>
<line x1="65" y1="290.0" x2="70" y2="290.0" stroke="black"/>
<text x="60" y="294.0" text-anchor="end" font-size="11" font-family="Arial">0.20</text>
<line x1="70" y1="290.0" x2="880" y2="290.0" stroke="#eee"/>
<line x1="65" y1="230.0" x2="70" y2="230.0" stroke="black"/>
<text x="60" y="234.0" text-anchor="end" font-size="11" font-family="Arial">0.40</text>
<line x1="70" y1="230.0" x2="880" y2="230.0" stroke="#eee"/>
<line x1="65" y1="170.0" x2="70" y2="170.0" stroke="black"/>
<text x="60" y="174.0" text-anchor="end" font-size="11" font-family="Arial">0.60</text>
<line x1="70" y1="170.0" x2="880" y2="170.0" stroke="#eee"/>
<line x1="65" y1="110.0" x2="70" y2="110.0" stroke="black"/>
<text x="60" y="114.0" text-anchor="end" font-size="11" font-family="Arial">0.80</text>
<line x1="70" y1="110.0" x2="880" y2="110.0" stroke="#eee"/>
<line x1="65" y1="50.0" x2="70" y2="50.0" stroke="black"/>
<text x="60" y="54.0" text-anchor="end" font-size="11" font-family="Arial">1.00</text>
<line x1="70" y1="50.0" x2="880" y2="50.0" stroke="#eee"/>
<line x1="70.0" y1="350" x2="70.0" y2="355" stroke="black"/>
<text x="70.0" y="370" text-anchor="middle" font-size="10" font-family="Arial">1</text>
<line x1="160.0" y1="350" x2="160.0" y2="355" stroke="black"/>
<text x="160.0" y="370" text-anchor="middle" font-size="10" font-family="Arial">2</text>
<line x1="250.0" y1="350" x2="250.0" y2="355" stroke="black"/>
<text x="250.0" y="370" text-anchor="middle" font-size="10" font-family="Arial">3</text>
<line x1="340.0" y1="350" x2="340.0" y2="355" stroke="black"/>
<text x="340.0" y="370" text-anchor="middle" font-size="10" font-family="Arial">4</text>
<line x1="430.0" y1="350" x2="430.0" y2="355" stroke="black"/>
<text x="430.0" y="370" text-anchor="middle" font-size="10" font-family="Arial">5</text>
<line x1="520.0" y1="350" x2="520.0" y2="355" stroke="black"/>
<text x="520.0" y="370" text-anchor="middle" font-size="10" font-family="Arial">6</text>
<line x1="610.0" y1="350" x2="610.0" y2="355" stroke="black"/>
<text x="610.0" y="370" text-anchor="middle" font-size="10" font-family="Arial">7</text>
<line x1="700.0" y1="350" x2="700.0" y2="355" stroke="black"/>
<text x="700.0" y="370" text-anchor="middle" font-size="10" font-family="Arial">8</text>
<line x1="790.0" y1="350" x2="790.0" y2="355" stroke="black"/>
<text x="790.0" y="370" text-anchor="middle" font-size="10" font-family="Arial">9</text>
<line x1="880.0" y1="350" x2="880.0" y2="355" stroke="black"/>
<text x="880.0" y="370" text-anchor="middle" font-size="10" font-family="Arial">10</text>
<polyline fill="none" stroke="#1f77b4" stroke-width="2.5" points="70.0,268.9 160.0,257.3 250.0,246.3 340.0,236.0 430.0,224.4 520.0,210.0 610.0,192.1 700.0,174.0 790.0,149.1 880.0,95.9"/>
<circle cx="70.0" cy="268.9" r="3" fill="#1f77b4"/>
<circle cx="160.0" cy="257.3" r="3" fill="#1f77b4"/>
<circle cx="250.0" cy="246.3" r="3" fill="#1f77b4"/>
<circle cx="340.0" cy="236.0" r="3" fill="#1f77b4"/>
<circle cx="430.0" cy="224.4" r="3" fill="#1f77b4"/>
<circle cx="520.0" cy="210.0" r="3" fill="#1f77b4"/>
<circle cx="610.0" cy="192.1" r="3" fill="#1f77b4"/>
<circle cx="700.0" cy="174.0" r="3" fill="#1f77b4"/>
<circle cx="790.0" cy="149.1" r="3" fill="#1f77b4"/>
<circle cx="880.0" cy="95.9" r="3" fill="#1f77b4"/>
<polyline fill="none" stroke="#d62728" stroke-width="2.5" points="70.0,332.7 160.0,332.7 250.0,323.4 340.0,336.1 430.0,332.7 520.0,339.6 610.0,340.8 700.0,343.1 790.0,345.4 880.0,330.4"/>
<circle cx="70.0" cy="332.7" r="3" fill="#d62728"/>
<circle cx="160.0" cy="332.7" r="3" fill="#d62728"/>
<circle cx="250.0" cy="323.4" r="3" fill="#d62728"/>
<circle cx="340.0" cy="336.1" r="3" fill="#d62728"/>
<circle cx="430.0" cy="332.7" r="3" fill="#d62728"/>
<circle cx="520.0" cy="339.6" r="3" fill="#d62728"/>
<circle cx="610.0" cy="340.8" r="3" fill="#d62728"/>
<circle cx="700.0" cy="343.1" r="3" fill="#d62728"/>
<circle cx="790.0" cy="345.4" r="3" fill="#d62728"/>
<circle cx="880.0" cy="330.4" r="3" fill="#d62728"/>
<line x1="90" y1="60" x2="110" y2="60" stroke="#1f77b4" stroke-width="3"/>
<text x="118" y="64" font-size="11" font-family="Arial">Mean similarity</text>
<line x1="90" y1="78" x2="110" y2="78" stroke="#d62728" stroke-width="3"/>
<text x="118" y="82" font-size="11" font-family="Arial">Empirical hit rate</text>
</svg>