<svg xmlns="http://www.w3.org/2000/svg" width="900" height="420">
<rect width="100%" height="100%" fill="white"/>
<text x="450.0" y="28" text-anchor="middle" font-size="18" font-family="Arial">Daily Relevance Rate Drift</text>
<line x1="70" y1="50" x2="70" y2="350" stroke="black"/>
<line x1="70" y1="350" x2="880" y2="350" stroke="black"/>
<line x1="65" y1="350.0" x2="70" y2="350.0" stroke="black"/>
<text x="60" y="354.0" text-anchor="end" font-size="11" font-family="Arial">0.00</text>
<line x1="70" y1="350.0" x2="880" y2="350.0" stroke="#eee"/>
<line x1="65" y1="290.0" x2="70" y2="290.0" stroke="black"/>
<text x="60" y="294.0" text-anchor="end" font-size="11" font-family="Arial">0.14</text>
<line x1="70" y1="290.0" x2="880" y2="290.0" stroke="#eee"/>
<line x1="65" y1="230.0" x2="70" y2="230.0" stroke="black"/>
<text x="60" y="234.0" text-anchor="end" font-size="11" font-family="Arial">0.28</text>
<line x1="70" y1="230.0" x2="880" y2="230.0" stroke="#eee"/>
<line x1="65" y1="170.0" x2="70" y2="170.0" stroke="black"/>
<text x="60" y="174.0" text-anchor="end" font-size="11" font-family="Arial">0.42</text>
<line x1="70" y1="170.0" x2="880" y2="170.0" stroke="#eee"/>
<line x1="65" y1="110.0" x2="70" y2="110.0" stroke="black"/>
<text x="60" y="114.0" text-anchor="end" font-size="11" font-family="Arial">0.56</text>
<line x1="70" y1="110.0" x2="880" y2="110.0" stroke="#eee"/>
<line x1="65" y1="50.0" x2="70" y2="50.0" stroke="black"/>
<text x="60" y="54.0" text-anchor="end" font-size="11" font-family="Arial">0.70</text>
<line x1="70" y1="50.0" x2="880" y2="50.0" stroke="#eee"/>
<line x1="70.0" y1="350" x2="70.0" y2="355" stroke="black"/>
<text x="70.0" y="370" text-anchor="middle" font-size="10" font-family="Arial">02-11</text>
<line x1="205.0" y1="350" x2="205.0" y2="355" stroke="black"/>
<text x="205.0" y="370" text-anchor="middle" font-size="10" font-family="Arial">02-12</text>
<line x1="340.0" y1="350" x2="340.0" y2="355" stroke="black"/>
<text x="340.0" y="370" text-anchor="middle" font-size="10" font-family="Arial">02-13</text>
<line x1="475.0" y1="350" x2="475.0" y2="355" stroke="black"/>
<text x="475.0" y="370" text-anchor="middle" font-size="10" font-family="Arial">02-15</text>
<line x1="610.0" y1="350" x2="610.0" y2="355" stroke="black"/>
<text x="610.0" y="370" text-anchor="middle" font-size="10" font-family="Arial">02-16</text>
<line x1="745.0" y1="350" x2="745.0" y2="355" stroke="black"/>
<text x="745.0" y="370" text-anchor="middle" font-size="10" font-family="Arial">02-17</text>
<line x1="880.0" y1="350" x2="880.0" y2="355" stroke="black"/>
<text x="880.0" y="370" text-anchor="middle" font-size="10" font-family="Arial">02-18</text>
<polyline fill="none" stroke="#2ca02c" stroke-width="2.5" points="70.0,317.8 205.0,306.0 340.0,332.8 475.0,312.2 610.0,339.0 745.0,338.8 880.0,343.0"/>
<circle cx="70.0" cy="317.8" r="3" fill="#2ca02c"/>
<circle cx="205.0" cy="306.0" r="3" fill="#2ca02c"/>
<circle cx="340.0" cy="332.8" r="3" fill="#2ca02c"/>
<circle cx="475.0" cy="312.2" r="3" fill="#2ca02c"/>
<circle cx="610.0" cy="339.0" r="3" fill="#2ca02c"/>
<circle cx="745.0" cy="338.8" r="3" fill="#2ca02c"/>
<circle cx="880.0" cy="343.0" r="3" fill="#2ca02c"/>
<polyline fill="none" stroke="#ff7f0e" stroke-width="2.5" points="70.0,175.6 205.0,174.5 340.0,146.7 475.0,159.5 610.0,170.2 745.0,112.5 880.0,113.2"/>
<circle cx="70.0" cy="175.6" r="3" fill="#ff7f0e"/>
<circle cx="205.0" cy="174.5" r="3" fill="#ff7f0e"/>
<circle cx="340.0" cy="146.7" r="3" fill="#ff7f0e"/>
<circle cx="475.0" cy="159.5" r="3" fill="#ff7f0e"/>
<circle cx="610.0" cy="170.2" r="3" fill="#ff7f0e"/>
<circle cx="745.0" cy="112.5" r="3" fill="#ff7f0e"/>
<circle cx="880.0" cy="113.2" r="3" fill="#ff7f0e"/>
<line x1="90" y1="60" x2="110" y2="60" stroke="#2ca02c" stroke-width="3"/>
<text x="118" y="64" font-size="11" font-family="Arial">Positive rate</text>
<line x1="90" y1="78" x2="110" y2="78" stroke="#ff7f0e" stroke-width="3"/>
<text x="118" y="82" font-size="11" font-family="Arial">Mean similarity</text>
</svg>